# xmcd
#
# Track frame offsets:
#	150
#	11579
#	23460
#	32277
#	44495
#	53739
#	63402
#	73577
#	84584
#	95117
#	107662
#	119379
#	131987
#	146135
#	156515
#	170682
#	182195
#	193463
#	207621
#	221281
#	232461
#	246360
#	256856
#	268835
#	281582
#	291749
#
# Disc length: 4028 seconds
#
# Revision: 1
# Processed by: cddbd v1.5.2PL0 Copyright (c) Steve Scherf et al.
# Submitted via: audiograbber 1.83.01
#
DISCID=a60fba1a
DTITLE=Hank Locklin - Please Help Me I'm Falling CD4
DYEAR=1995
DGENRE=Country
TTITLE0=Kentucky Waltz
TTITLE1=Candy Kisses
TTITLE2=Rosalita
TTITLE3=Wishing on a Star
TTITLE4=Flyin' South
TTITLE5=Sweet Temptation
TTITLE6=A Little Bit Lonesome
TTITLE7=Ivory Tower
TTITLE8=Followed Closely by My Teardrops
TTITLE9=It Keeps Right on A-Hurtin'
TTITLE10=Wooden Soldier
TTITLE11=Galway Bay
TTITLE12=Too-Ra-Loo-Ra-Loo-Ral (That's an Irish Lullaby)
TTITLE13=My Wild Irish Rose
TTITLE14=Danny Dear
TTITLE15=Danny Boy
TTITLE16=When Irish Eyes Are Smiling
TTITLE17=Forty Shades of Green
TTITLE18=If We Only Had Old Ireland over Here
TTITLE19=A Little Bit of Heaven
TTITLE20=The Old Bog Road
TTITLE21=I'll Take You Home Again, Kathleen
TTITLE22=I Was Coming Home to You
TTITLE23=I Feel a Cry Coming On
TTITLE24=The Girls Get Prettier (Every Day)
TTITLE25=Hello Heartache
EXTD=
EXTT0=
EXTT1=
EXTT2=
EXTT3=
EXTT4=
EXTT5=
EXTT6=
EXTT7=
EXTT8=
EXTT9=
EXTT10=
EXTT11=
EXTT12=
EXTT13=
EXTT14=
EXTT15=
EXTT16=
EXTT17=
EXTT18=
EXTT19=
EXTT20=
EXTT21=
EXTT22=
EXTT23=
EXTT24=
EXTT25=
PLAYORDER=
